<svg xmlns="http://www.w3.org/2000/svg" width="260" height="260" viewBox="0 0 260 260">
  <!-- Tile de ícones da identidade Botecofy para o fundo do login.
       Tracos em azul escuro sobre o cobalto -> textura sutil de boteco. -->
  <g fill="none" stroke="#16276E" stroke-width="2.4" stroke-linejoin="round" stroke-linecap="round" opacity="0.55">

    <!-- copo americano + espuma com nota -->
    <g transform="translate(28 30)">
      <path d="M2 14 L30 14 L26 50 Q26 53 23 53 L9 53 Q6 53 6 50 Z"/>
      <path d="M0 14 Q-1 4 8 5 Q9 -2 16 1 Q24 -2 25 7 Q33 7 32 14"/>
      <circle cx="11" cy="7" r="2"/>
      <path d="M13 7 V1"/>
    </g>

    <!-- tamborim -->
    <g transform="translate(168 36)">
      <circle cx="22" cy="22" r="22"/>
      <circle cx="22" cy="22" r="14"/>
      <circle cx="22" cy="0" r="3"/>
      <circle cx="44" cy="22" r="3"/>
      <circle cx="22" cy="44" r="3"/>
      <circle cx="0" cy="22" r="3"/>
      <circle cx="6" cy="6" r="3"/>
      <circle cx="38" cy="38" r="3"/>
    </g>

    <!-- espetinho -->
    <g transform="translate(150 150) rotate(-35)">
      <path d="M0 0 H56"/>
      <rect x="8" y="-8" width="16" height="16" rx="3"/>
      <rect x="28" y="-8" width="16" height="16" rx="3"/>
    </g>

    <!-- chinelo -->
    <g transform="translate(30 150)">
      <path d="M14 0 Q30 0 30 18 Q30 44 16 50 Q2 44 2 22 Q2 0 14 0 Z"/>
      <path d="M16 6 L9 22 M16 6 L23 22"/>
    </g>

    <!-- tampinha -->
    <g transform="translate(120 110)">
      <path d="M20 2 21 7 26 5 25 10 30 11 26 14 30 18 25 19 26 24 21 22 20 27 19 22 14 24 15 19 10 18 14 14 10 11 15 10 14 5 19 7 Z"/>
      <circle cx="20" cy="14.5" r="6"/>
    </g>

  </g>
</svg>
